HIERARCHY
ROOT Hips
{
	OFFSET -3.958830 18.904000 13.208200
	CHANNELS 6 Xposition Yposition Zposition Zrotation Yrotation Xrotation 
	JOINT LHipJoint
	{
		OFFSET 0.000000 0.000000 0.000000
		CHANNELS 3 Zrotation Yrotation Xrotation
		JOINT LeftUpLeg
		{
			OFFSET 1.800000 -1.400000 0.085000
			CHANNELS 3 Zrotation Yrotation Xrotation
			JOINT LeftLeg
			{
				OFFSET 2.215000 -6.000000 0.000000
				CHANNELS 3 Zrotation Yrotation Xrotation
				JOINT LeftFoot
				{
					OFFSET 2.500000 -6.900000 0.000000
					CHANNELS 3 Zrotation Yrotation Xrotation
					JOINT LeftToeBase
					{
						OFFSET 0.200000 -0.500000 1.950000
						CHANNELS 3 Zrotation Yrotation Xrotation
						End Site
						{
							OFFSET 0.000000 0.000000 0.000000
						}
					}
				}
			}
		}
	}
	JOINT RHipJoint
	{
		OFFSET 0.000000 0.000000 0.000000
		CHANNELS 3 Zrotation Yrotation Xrotation
		JOINT RightUpLeg
		{
			OFFSET -1.800000 -1.400000 0.085000
			CHANNELS 3 Zrotation Yrotation Xrotation
			JOINT RightLeg
			{
				OFFSET -2.215000 -6.000000 0.000000
				CHANNELS 3 Zrotation Yrotation Xrotation
				JOINT RightFoot
				{
					OFFSET -2.500000 -6.900000 0.000000
					CHANNELS 3 Zrotation Yrotation Xrotation
					JOINT RightToeBase
					{
						OFFSET -0.200000 -0.500000 1.950000
						CHANNELS 3 Zrotation Yrotation Xrotation
						End Site
						{
							OFFSET 0.000000 0.000000 0.000000
						}
					}
				}
			}
		}
	}
	JOINT LowerBack
	{
		OFFSET 0.000000 0.000000 0.000000
		CHANNELS 3 Zrotation Yrotation Xrotation
		JOINT Spine
		{
			OFFSET -0.087000 1.940000 -0.288900
			CHANNELS 3 Zrotation Yrotation Xrotation
			JOINT Spine1
			{
				OFFSET 0.000000 1.950000 0.060000
				CHANNELS 3 Zrotation Yrotation Xrotation
				JOINT Neck
				{
					OFFSET 0.000000 0.000000 0.000000
					CHANNELS 3 Zrotation Yrotation Xrotation
					JOINT Neck1
					{
						OFFSET 0.000000 1.600000 0.340000
						CHANNELS 3 Zrotation Yrotation Xrotation
						JOINT Head
						{
							OFFSET 0.000000 1.667000 -0.240000
							CHANNELS 3 Zrotation Yrotation Xrotation
							End Site
							{
								OFFSET 0.000000 0.000000 0.000000
							}
						}
					}
				}
				JOINT LeftShoulder
				{
					OFFSET 0.000000 0.000000 0.000000
					CHANNELS 3 Zrotation Yrotation Xrotation
					JOINT LeftArm
					{
						OFFSET 2.700000 1.550000 -0.730000
						CHANNELS 3 Zrotation Yrotation Xrotation
						JOINT LeftForeArm
						{
							OFFSET 5.450000 0.000000 0.000000
							CHANNELS 3 Zrotation Yrotation Xrotation
							JOINT LeftHand
							{
								OFFSET 3.450000 0.000000 0.000000
								CHANNELS 3 Zrotation Yrotation Xrotation
								JOINT LeftHandIndex1
								{
									OFFSET 0.750000 0.000000 0.000000
									CHANNELS 3 Zrotation Yrotation Xrotation
									End Site
									{
										OFFSET 0.000000 0.000000 0.000000
									}
								}
							}
						}
					}
				}
				JOINT RightShoulder
				{
					OFFSET 0.000000 0.000000 0.000000
					CHANNELS 3 Zrotation Yrotation Xrotation
					JOINT RightArm
					{
						OFFSET -2.700000 1.550000 -0.730000
						CHANNELS 3 Zrotation Yrotation Xrotation
						JOINT RightForeArm
						{
							OFFSET -5.450000 0.000000 0.000000
							CHANNELS 3 Zrotation Yrotation Xrotation
							JOINT RightHand
							{
								OFFSET -3.450000 0.000000 0.000000
								CHANNELS 3 Zrotation Yrotation Xrotation
								JOINT RightHandIndex1
								{
									OFFSET -0.750000 0.000000 0.000000
									CHANNELS 3 Zrotation Yrotation Xrotation
									End Site
									{
										OFFSET 0.000000 0.000000 0.000000
									}
								}
							}
						}
					}
				}
			}
		}
	}
}
MOTION
Frames: 10
Frame Time: 0.016667
-1.258930 18.605640 -6.318460 9.113557 -9.210510 4.700444 -15.344655 11.405759 5.429193 -1.195031 -11.377265 -44.693003 7.136715 7.552278 63.850723 0.558286 11.391799 0.859758 0.266480 -0.222000 0.016950 18.370482 -10.599758 2.004586 -4.036441 1.085780 -12.133043 2.419978 -4.968526 16.042791 -0.363676 -3.602844 3.077678 -0.066020 0.905530 0.791190 -3.475731 -0.402455 -8.224184 4.336644 4.880281 14.672298 -9.620002 7.605965 8.024986 3.349971 -4.466373 -10.384629 -9.341883 1.273234 32.506115 -1.074580 -3.751360 -12.079020 -6.699637 -15.488066 3.727042 -8.191069 -15.553162 -3.588623 55.502493 -41.535127 -21.039481 -3.932322 2.646456 0.740050 0.412730 0.024420 0.449540 -0.137437 22.316844 5.062763 1.500788 24.714829 -7.635019 -69.324017 47.442549 -30.039498 1.429405 -1.072480 -0.289430 0.394160 0.260760 0.039950 
-1.321710 18.509820 -6.311300 8.690596 -9.312671 5.905596 -15.322472 11.450707 5.406009 -0.901912 -10.676675 -45.529440 4.401407 7.600951 55.183290 0.204593 9.781395 1.330854 0.234260 -0.261100 0.027530 18.369507 -10.659537 2.069954 -2.975574 1.236589 -12.490417 1.651199 -4.844080 17.251870 -0.382371 -3.560221 3.092965 -0.126810 0.848880 0.788500 -3.491420 -0.406454 -8.198752 4.777065 5.494520 13.754621 -9.711992 8.018952 6.509514 3.371208 -4.098106 -10.439897 -9.174071 0.967548 33.929073 -1.600420 -3.222570 -12.864120 -6.087563 -15.798855 3.518393 -3.645497 -15.552747 -3.132689 46.787566 -43.013075 -16.971910 -3.879352 2.655604 0.781270 0.370030 0.071150 0.424100 -0.832492 22.193014 4.898360 -1.111009 24.025992 -7.463495 -60.428797 46.054916 -23.373151 1.518039 -1.134082 -0.272140 0.364390 0.256950 0.027130 
-1.373580 18.420340 -6.327640 8.443273 -10.124806 6.215393 -15.257011 11.591923 5.198528 -0.919923 -9.472855 -44.641022 1.482423 7.408999 45.615718 -0.096122 7.938611 1.929895 0.282590 -0.176880 0.081590 18.374454 -10.815503 2.185150 -2.732609 1.293958 -12.587782 1.645228 -4.765917 17.259721 -0.429629 -3.499428 3.117119 -0.127750 0.774450 0.779190 -3.565347 -0.303144 -8.108601 5.157613 6.030122 13.616878 -9.817377 8.411251 5.783780 3.323805 -4.048531 -10.252215 -9.389196 1.090691 35.249634 -2.013000 -2.497940 -14.594020 -5.540334 -15.879294 3.228369 0.848379 -14.835920 -2.960590 39.171083 -45.792227 -13.982001 -3.786621 2.697358 0.789740 0.312630 0.152110 0.444210 -1.361544 22.249672 4.488881 -3.483979 24.856296 -7.177716 -53.986232 44.480506 -19.147042 1.636300 -1.193690 -0.217670 0.350690 0.179230 0.046210 
-1.428020 18.325850 -6.319560 7.271415 -10.332478 6.856141 -15.126608 11.674166 4.889424 -0.493467 -8.090567 -43.199511 -1.063681 6.579123 35.437336 -0.461008 6.095605 2.548826 0.337820 -0.130240 0.136250 18.453903 -11.005566 2.351147 -1.784790 1.405711 -12.612889 1.881374 -4.772412 17.238775 -0.475910 -3.521223 3.082076 -0.106580 0.732030 0.813000 -3.852281 0.019942 -7.971346 7.474664 6.441335 12.708550 -10.811732 8.964687 5.754899 3.355744 -3.615759 -9.750171 -8.815126 0.940279 36.335468 -2.511230 -2.163270 -15.670220 -5.483165 -15.743465 2.503304 3.509354 -16.430132 -2.559717 36.042551 -48.125400 -13.046719 -3.767596 2.744042 0.814330 0.293860 0.192490 0.447600 -1.770637 21.387530 4.235418 -4.155844 24.817806 -6.625768 -49.890692 44.073987 -16.848389 1.655298 -1.249874 -0.191980 0.324350 0.153540 0.033080 
-1.492190 18.226330 -6.286770 6.984389 -8.701301 8.276333 -15.119776 11.591676 4.780300 -1.673975 -8.046314 -42.673895 -2.793020 5.337571 26.280007 -0.765813 4.609194 3.136336 0.290080 -0.191640 0.089390 18.481551 -10.967922 2.390890 -1.178674 1.366753 -12.801610 2.531099 -4.780952 16.239211 -0.405746 -3.532747 3.110442 -0.086100 0.832340 0.782320 -3.920889 0.070091 -7.792145 7.541410 6.718482 10.080847 -10.019548 8.765596 6.446136 2.905219 -3.376575 -9.094774 -8.250557 0.194042 35.279271 -2.593150 -3.112210 -13.026320 -5.134276 -14.883352 2.045453 3.337476 -16.876408 -1.991856 39.240284 -53.787905 -16.162237 -3.825219 2.661272 0.759760 0.375600 0.089040 0.445370 -1.201018 19.953672 4.099042 -2.694109 24.714625 -5.805175 -52.209008 45.317454 -18.344773 1.568602 -1.222236 -0.258390 0.380420 0.201750 0.028310 
-1.564760 18.154010 -6.254820 6.657437 -6.730082 9.330729 -15.109973 11.417203 4.686033 -2.495621 -8.017906 -41.816339 -5.629190 4.605459 18.087345 -1.033122 3.782953 3.517840 0.256830 -0.207090 0.044150 18.531855 -10.912866 2.398357 -0.472609 1.298506 -12.622782 3.480560 -4.932427 15.533306 -0.355094 -3.677024 3.093429 -0.000920 0.988790 0.773250 -4.030138 0.237721 -7.614526 7.784798 6.440223 8.215682 -9.723221 8.207431 7.678879 2.744792 -2.961117 -8.030209 -6.608748 -0.279197 31.993507 -4.567030 -2.911460 -11.259560 -5.262663 -13.257189 1.392615 2.130577 -16.190564 -1.627296 47.672797 -59.762148 -22.919458 -3.941612 2.440153 0.680400 0.525540 -0.027460 0.459340 -0.758185 17.625197 3.574602 0.608808 25.285533 -4.821940 -59.143830 47.715932 -23.246236 1.385766 -1.152943 -0.353860 0.488500 0.260190 0.025280 
-1.664870 18.104150 -6.207030 6.478981 -3.972988 9.813991 -15.120529 11.208506 4.603839 -3.835226 -8.204372 -40.579961 -8.126849 4.083104 12.254305 -1.278075 3.569786 3.688470 0.272870 -0.174300 0.040530 18.580729 -10.827754 2.377508 0.495234 1.180434 -11.842960 4.777568 -5.285412 15.692216 -0.328990 -3.997803 2.995146 0.151940 1.187940 0.787640 -4.103614 0.414322 -7.409184 7.557367 6.015463 6.337472 -8.930643 7.429648 9.449388 2.476953 -2.642098 -6.700246 -5.024349 -0.289661 27.969704 -6.394490 -2.713620 -9.481040 -5.040300 -9.788008 0.322095 -3.094357 -17.501547 -0.255082 64.171698 -64.658298 -35.820828 -4.041477 1.919603 0.572010 0.724510 -0.171300 0.479710 -0.326283 13.613803 2.930304 7.191446 26.372736 -2.388930 -72.301292 51.176980 -33.614296 1.105070 -1.000037 -0.463950 0.623950 0.317800 0.015890 
-1.751140 18.100130 -6.150550 5.842226 -0.247506 9.155075 -15.079551 11.154188 4.547616 -5.058925 -8.179828 -38.842096 -9.944984 3.939641 9.645509 -1.267196 3.556070 3.746890 0.219660 -0.221410 -0.049210 18.623648 -10.830378 2.460512 1.434246 0.840794 -10.328009 6.045705 -5.669342 15.169482 -0.343760 -4.238202 2.955446 0.142170 1.286140 0.807180 -4.235224 0.537572 -7.481023 8.931172 5.166919 7.155850 -9.123374 6.732511 11.043822 2.591385 -2.502870 -7.448544 -4.414196 -0.152418 26.793476 -6.348550 -2.684160 -7.428230 -5.973016 -7.075048 1.349283 -9.452379 -17.212232 2.651370 91.666415 -62.799715 -58.117601 -4.132770 1.314653 0.507160 0.804480 -0.239910 0.507340 0.554095 10.814727 3.799238 14.103055 24.743689 -0.446583 -89.655297 52.673543 -49.295435 1.039377 -0.810159 -0.478970 0.629620 0.352740 0.047160 
-1.858060 18.113240 -6.087660 5.624041 2.588030 8.048380 -15.053978 11.223880 4.460215 -6.970351 -8.120906 -36.614953 -9.688765 3.796550 9.391083 -1.224052 3.421648 3.767686 0.226710 -0.212550 -0.096630 18.634481 -10.855454 2.535385 1.686783 0.611267 -9.061127 7.486342 -6.180362 15.336217 -0.411280 -4.449666 2.864060 0.113080 1.242890 0.843170 -4.302674 0.530105 -7.519355 9.418189 4.305416 8.724353 -9.566464 6.115506 12.858159 2.557117 -2.947410 -8.470447 -4.965462 0.471108 26.111707 -4.574820 -2.960940 -8.302000 -6.700885 -3.934222 2.584006 -18.285493 -15.562612 5.267142 115.554758 -58.027951 -86.082357 -4.524060 2.305232 0.511230 0.760860 -0.222040 0.504300 1.540060 8.130381 4.920722 23.399102 23.796672 2.379108 -109.171998 50.862521 -71.652985 1.314072 -1.099002 -0.418210 0.540910 0.360850 0.067990 
-1.962490 18.150530 -6.036570 4.231351 3.608669 6.242477 -14.965178 11.392598 4.228178 -7.582140 -7.204613 -33.801044 -8.060943 3.681632 9.852135 -1.280632 3.386266 3.818296 0.088630 -0.437330 -0.100990 18.682733 -10.990417 2.707979 3.255764 0.538032 -8.122472 8.190751 -6.735056 17.071859 -0.449755 -4.614729 2.821159 -0.014440 1.238220 0.772840 -4.511668 0.680759 -7.570322 11.610487 3.674873 11.196235 -10.508960 5.966372 13.956799 2.802931 -3.117154 -9.197756 -5.394479 0.564243 27.375572 -4.273250 -2.871370 -9.207050 -9.513863 -3.153588 3.320306 -25.280376 -11.314173 4.525892 135.740910 -55.924139 -114.239231 -4.544895 2.879384 0.641890 0.698390 -0.233920 0.430300 3.872501 7.305979 6.095050 31.817174 21.938307 3.475268 -125.572922 51.066428 -96.429167 1.529755 -1.362724 -0.529260 0.591550 0.434890 0.001260 
